<svg xmlns="http://www.w3.org/2000/svg" version="1.1" xmlns:xlink="http://www.w3.org/1999/xlink" xmlns:svgjs="http://svgjs.dev/svgjs" width="1500" height="1500" viewBox="0 0 1500 1500"><rect width="1500" height="1500" fill="#ffffff"></rect><g transform="matrix(0.6666666666666666,0,0,0.6666666666666666,248.6707061302315,409)"><svg viewBox="0 0 293 200" data-background-color="#ffffff" preserveAspectRatio="xMidYMid meet" height="1023" width="1500" xmlns="http://www.w3.org/2000/svg" xmlns:xlink="http://www.w3.org/1999/xlink"><g id="tight-bounds" transform="matrix(1,0,0,1,0.3894831038421671,0)"><svg viewBox="0 0 292.22103379231567 200" height="200" width="292.22103379231567"><g><svg viewBox="0 0 293.6821389612772 200.99999999999997" height="200" width="292.22103379231567"><g><rect width="5.63474230627615" height="200.99999999999997" x="121.06215205782966" y="0" fill="#383856" opacity="1" stroke-width="0" stroke="transparent" fill-opacity="1" class="rect-yte-0" data-fill-palette-color="primary" rx="1%" id="yte-0" data-palette-color="#383856"></rect></g><g transform="matrix(1,0,0,1,141.44752867372924,0.4999999999999858)"><svg viewBox="0 0 152.23461028754795 200" height="200" width="152.23461028754795"><g id="textblocktransform"><svg viewBox="0 0 152.23461028754795 200" height="200" width="152.23461028754795" id="textblock"><g><svg viewBox="0 0 152.23461028754795 200" height="200" width="152.23461028754795"><g transform="matrix(1,0,0,1,0,0)"><svg width="152.23461028754795" viewBox="0.950000000000002 -35.2 111.35222999763559 131.15" height="200" data-palette-color="#383856"><svg></svg><svg></svg><svg></svg><g class="wordmark-text-0" data-fill-palette-color="primary" id="text-0"><path d="M30.75-32.1l-3.1 22.75-1.05 9.35h-3.9l-12.55-26h-0.35l-1.95 15.5-1.15 10.5h-3.55l1.4-9.5 2.7-22.5h3.9l12.55 26h0.3l3.2-25.85zM46.25-7l0.6 0.05 1.2 1.55c-1.067 1.633-2.233 2.917-3.5 3.85-1.267 0.933-2.7 1.567-4.3 1.9v0h-0.6c-2.133-0.267-3.69-1.05-4.67-2.35-0.987-1.3-1.48-3.233-1.48-5.8v0c0-2.933 0.473-5.567 1.42-7.9 0.953-2.333 2.257-4.167 3.91-5.5 1.647-1.333 3.537-2.033 5.67-2.1v0l0.4 0.05c1.433 0.167 2.523 0.633 3.27 1.4 0.753 0.767 1.13 1.783 1.13 3.05v0c0 2-1.033 3.84-3.1 5.52-2.067 1.687-5.133 3.163-9.2 4.43v0c0 2.1 0.277 3.633 0.83 4.6 0.547 0.967 1.403 1.45 2.57 1.45v0c1 0 1.957-0.333 2.87-1 0.92-0.667 1.913-1.733 2.98-3.2zM43.7-20.6c-1.7 0-3.14 0.823-4.32 2.47-1.187 1.653-1.93 3.863-2.23 6.63v0c2.867-0.933 5.04-1.993 6.52-3.18 1.487-1.18 2.23-2.47 2.23-3.87v0c0-1.367-0.733-2.05-2.2-2.05zM67.15-23.25c2.533 1.533 3.8 4.15 3.8 7.85v0c0 2.433-0.45 4.773-1.35 7.02-0.9 2.253-2.24 4.18-4.02 5.78-1.787 1.6-3.93 2.583-6.43 2.95v0h-0.2l-2.7-0.6-0.55 4.05-0.25 5.45-3.8 0.35 3.85-27.55 0.25-4.85 3.65-0.35-1.4 10.3h0.55c2.433-4.267 5.067-7.733 7.9-10.4v0zM59.9-2.65c1.567 0 2.927-0.533 4.08-1.6 1.147-1.067 2.03-2.493 2.65-4.28 0.613-1.78 0.92-3.753 0.92-5.92v0c0-1.667-0.15-2.86-0.45-3.58-0.3-0.713-0.65-1.07-1.05-1.07v0c-0.4 0-1.09 0.55-2.07 1.65-0.987 1.1-2.103 2.7-3.35 4.8-1.253 2.1-2.48 4.567-3.68 7.4v0l-0.25 1.7zM91.6-23.3l0.45 0.3-2.45 17.55-0.25 5.3-3.8 0.35 1.45-10.25h-0.5c-2.433 4.267-5.05 7.733-7.85 10.4v0h-0.7c-2.533-1.433-3.8-4.05-3.8-7.85v0c0-2.4 0.45-4.733 1.35-7 0.9-2.267 2.223-4.193 3.97-5.78 1.753-1.58 3.88-2.57 6.38-2.97v0h0.25l3.1 1.15zM79-3.75c0.4 0 1.093-0.55 2.08-1.65 0.98-1.1 2.093-2.7 3.34-4.8 1.253-2.1 2.48-4.567 3.68-7.4v0l0.05-0.3 0.05-1.2-3.1-1.1c-1.533 0-2.873 0.523-4.02 1.57-1.153 1.053-2.03 2.47-2.63 4.25-0.6 1.787-0.9 3.763-0.9 5.93v0c0 1.667 0.15 2.867 0.45 3.6 0.3 0.733 0.633 1.1 1 1.1zM105.45-35.2l-4.15 29.75-0.25 5.3-3.75 0.35 4.25-30.2 0.15-4.85z" fill="#383856" fill-rule="nonzero" stroke="none" stroke-width="1" stroke-linecap="butt" stroke-linejoin="miter" stroke-miterlimit="10" stroke-dasharray="" stroke-dashoffset="0" font-family="none" font-weight="none" font-size="none" text-anchor="none" style="mix-blend-mode: normal" data-fill-palette-color="primary" opacity="1"></path><path transform="translate(0,47.8)" d="M17.9-16.7c3.767 1.1 5.65 3.317 5.65 6.65v0c0 3.333-1.14 5.873-3.42 7.62-2.287 1.753-5.68 2.63-10.18 2.63v0c-2.867 0-5.117-0.067-6.75-0.2v0h-0.05l1.45-9.65 2.6-22.35h0.05l8.15-0.1c2.567 0 4.56 0.573 5.98 1.72 1.413 1.153 2.12 2.813 2.12 4.98v0c0 2.067-0.483 3.84-1.45 5.32-0.967 1.487-2.35 2.613-4.15 3.38zM19.65-24.75c0-1.433-0.417-2.493-1.25-3.18-0.833-0.68-2.133-1.02-3.9-1.02v0h-3.9l-1.55 10.95 5.25 0.15c3.567-0.8 5.35-3.1 5.35-6.9zM10.8-2.95c2.833 0 5.027-0.6 6.58-1.8 1.547-1.2 2.32-2.9 2.32-5.1v0c0-2.933-1.733-4.6-5.2-5v0l-5.9 0.05-0.65 4.85-0.7 6.85c1.233 0.1 2.417 0.15 3.55 0.15zM34.3-23.15l-2.5 17.7-0.2 5.3-3.8 0.35 2.6-18.15 0.2-4.85zM33.45-32.95c0.633 0 1.143 0.183 1.53 0.55 0.38 0.367 0.57 0.883 0.57 1.55v0c0 0.7-0.2 1.267-0.6 1.7-0.4 0.433-0.933 0.65-1.6 0.65v0c-0.667 0-1.19-0.2-1.57-0.6-0.387-0.4-0.58-0.933-0.58-1.6v0c0-0.667 0.2-1.21 0.6-1.63 0.4-0.413 0.95-0.62 1.65-0.62zM52.95-23.25c2.533 1.5 3.8 4.117 3.8 7.85v0c0 2.433-0.45 4.783-1.35 7.05-0.9 2.267-2.233 4.19-4 5.77-1.767 1.587-3.9 2.563-6.4 2.93v0h-0.2l-3.25-0.75-2.55-0.45 4.1-29.15 0.1-4.85 3.8-0.35-3.15 22.35h0.55c2.3-4.1 4.917-7.567 7.85-10.4v0zM45.75-2.65c1.567 0 2.927-0.533 4.08-1.6 1.147-1.067 2.03-2.493 2.65-4.28 0.613-1.78 0.92-3.753 0.92-5.92v0c0-1.667-0.15-2.86-0.45-3.58-0.3-0.713-0.65-1.07-1.05-1.07v0c-0.4 0-1.083 0.54-2.05 1.62-0.967 1.087-2.077 2.663-3.33 4.73-1.247 2.067-2.47 4.5-3.67 7.3v0l-0.1 1.95zM67.25-23.15l-2.5 17.7-0.2 5.3-3.8 0.35 2.6-18.15 0.2-4.85zM66.4-32.95c0.633 0 1.14 0.183 1.52 0.55 0.387 0.367 0.58 0.883 0.58 1.55v0c0 0.7-0.2 1.267-0.6 1.7-0.4 0.433-0.933 0.65-1.6 0.65v0c-0.667 0-1.193-0.2-1.58-0.6-0.38-0.4-0.57-0.933-0.57-1.6v0c0-0.667 0.2-1.21 0.6-1.63 0.4-0.413 0.95-0.62 1.65-0.62zM87-34.85l3.8-0.35-4.15 29.75-0.25 5.3-3.8 0.35 1.45-10.25h-0.5c-2.467 4.233-5.117 7.7-7.95 10.4v0h-0.75c-2.533-1.433-3.8-4.05-3.8-7.85v0c0-2.4 0.45-4.733 1.35-7 0.9-2.267 2.24-4.2 4.02-5.8 1.787-1.6 3.93-2.583 6.43-2.95v0h0.25l2.65 0.95 1.1-7.7zM75.95-3.75c0.4 0 1.083-0.543 2.05-1.63 0.967-1.08 2.083-2.663 3.35-4.75 1.267-2.08 2.517-4.52 3.75-7.32v0l0.2-1.6-3.15-1.15c-1.567 0-2.933 0.523-4.1 1.57-1.167 1.053-2.067 2.47-2.7 4.25-0.633 1.787-0.95 3.763-0.95 5.93v0c0 1.667 0.16 2.867 0.48 3.6 0.313 0.733 0.67 1.1 1.07 1.1zM108.45-23.25c1.167 0.267 2.11 0.773 2.83 1.52 0.713 0.753 1.053 1.697 1.02 2.83v0l-0.05 0.65-2.05 12.85-0.3 5.25-3.85 0.35 2.75-17.1 0.05-0.65c0-1.033-0.35-1.55-1.05-1.55v0c-0.967 0-2.327 1.217-4.08 3.65-1.747 2.433-3.703 5.9-5.87 10.4v0l-0.25 4.9-3.8 0.35 4.3-30.2 0.1-4.85 3.8-0.35-3.25 23.3h0.45c1.633-2.867 3.133-5.193 4.5-6.98 1.367-1.78 2.767-3.237 4.2-4.37v0z" fill="#8789fe" fill-rule="nonzero" stroke="none" stroke-width="1" stroke-linecap="butt" stroke-linejoin="miter" stroke-miterlimit="10" stroke-dasharray="" stroke-dashoffset="0" font-family="none" font-weight="none" font-size="none" text-anchor="none" style="mix-blend-mode: normal" data-fill-palette-color="secondary" opacity="1"></path><path transform="translate(0,95.6)" d="M14.9-32.3c2.4 0 4.75 0.517 7.05 1.55v0l-1.05 3.55-0.7 0.2c-1.733-1.467-3.667-2.2-5.8-2.2v0c-1.267 0-2.383 0.25-3.35 0.75-0.967 0.5-1.717 1.157-2.25 1.97-0.533 0.82-0.8 1.68-0.8 2.58v0c0 1.233 0.433 2.257 1.3 3.07 0.867 0.82 2.2 1.797 4 2.93v0c1.467 0.9 2.66 1.707 3.58 2.42 0.913 0.72 1.697 1.62 2.35 2.7 0.647 1.087 0.97 2.347 0.97 3.78v0c0 1.7-0.473 3.267-1.42 4.7-0.953 1.433-2.263 2.567-3.93 3.4-1.667 0.833-3.533 1.25-5.6 1.25v0c-1.367 0-2.79-0.2-4.27-0.6-1.487-0.4-2.83-0.95-4.03-1.65v0l0.95-3.85 0.5-0.2c0.967 1.067 2.1 1.867 3.4 2.4 1.3 0.533 2.583 0.8 3.85 0.8v0c1.967 0 3.583-0.543 4.85-1.63 1.267-1.08 1.9-2.387 1.9-3.92v0c0-1.3-0.433-2.383-1.3-3.25-0.867-0.867-2.2-1.85-4-2.95v0c-1.433-0.867-2.6-1.65-3.5-2.35-0.9-0.7-1.667-1.583-2.3-2.65-0.633-1.067-0.95-2.317-0.95-3.75v0c0-1.667 0.46-3.193 1.38-4.58 0.913-1.38 2.18-2.47 3.8-3.27 1.613-0.8 3.403-1.2 5.37-1.2zM36.05-7l0.6 0.05 1.2 1.55c-1.067 1.633-2.233 2.917-3.5 3.85-1.267 0.933-2.7 1.567-4.3 1.9v0h-0.6c-2.133-0.267-3.69-1.05-4.67-2.35-0.987-1.3-1.48-3.233-1.48-5.8v0c0-2.933 0.477-5.567 1.43-7.9 0.947-2.333 2.247-4.167 3.9-5.5 1.647-1.333 3.537-2.033 5.67-2.1v0l0.4 0.05c1.433 0.167 2.527 0.633 3.28 1.4 0.747 0.767 1.12 1.783 1.12 3.05v0c0 2-1.033 3.84-3.1 5.52-2.067 1.687-5.133 3.163-9.2 4.43v0c0 2.1 0.277 3.633 0.83 4.6 0.547 0.967 1.403 1.45 2.57 1.45v0c1 0 1.96-0.333 2.88-1 0.913-0.667 1.903-1.733 2.97-3.2zM33.5-20.6c-1.7 0-3.14 0.823-4.32 2.47-1.187 1.653-1.93 3.863-2.23 6.63v0c2.867-0.933 5.043-1.993 6.53-3.18 1.48-1.18 2.22-2.47 2.22-3.87v0c0-1.367-0.733-2.05-2.2-2.05zM71.95-12.75l-7.1 12.75h-3.9l-1.8-17.85h-0.4l-7.95 17.85h-4.05l-2.7-22.8 3.7-0.35 0.05 3.05 1.55 15.85h0.35l7-15.65 1.15-3.05h3.95l0.15 2.85 1.55 15.85h0.3l5.15-9.55c0.533-1 0.933-1.867 1.2-2.6 0.267-0.733 0.4-1.433 0.4-2.1v0c0-1.067-0.4-2.183-1.2-3.35v0l0.15-0.5 3.45-0.8c0.767 1.233 1.15 2.567 1.15 4v0c0 0.933-0.183 1.907-0.55 2.92-0.367 1.02-0.9 2.18-1.6 3.48zM93-23.3l0.45 0.3-2.45 17.55-0.25 5.3-3.8 0.35 1.45-10.25h-0.5c-2.433 4.267-5.05 7.733-7.85 10.4v0h-0.7c-2.533-1.433-3.8-4.05-3.8-7.85v0c0-2.4 0.45-4.733 1.35-7 0.9-2.267 2.223-4.193 3.97-5.78 1.753-1.58 3.88-2.57 6.38-2.97v0h0.25l3.1 1.15zM80.4-3.75c0.4 0 1.09-0.55 2.07-1.65 0.987-1.1 2.103-2.7 3.35-4.8 1.253-2.1 2.48-4.567 3.68-7.4v0l0.05-0.3 0.05-1.2-3.1-1.1c-1.533 0-2.877 0.523-4.03 1.57-1.147 1.053-2.02 2.47-2.62 4.25-0.6 1.787-0.9 3.763-0.9 5.93v0c0 1.667 0.15 2.867 0.45 3.6 0.3 0.733 0.633 1.1 1 1.1z" fill="#ec0020" fill-rule="nonzero" stroke="none" stroke-width="1" stroke-linecap="butt" stroke-linejoin="miter" stroke-miterlimit="10" stroke-dasharray="" stroke-dashoffset="0" font-family="none" font-weight="none" font-size="none" text-anchor="none" style="mix-blend-mode: normal" data-fill-palette-color="accent" opacity="1"></path></g></svg></g></svg></g></svg></g></svg></g><g transform="matrix(1,0,0,1,0,20.339840141275758)"><svg viewBox="0 0 106.31151774820623 160.32031971744846" height="160.32031971744846" width="106.31151774820623"><g><svg xmlns="http://www.w3.org/2000/svg" xmlns:xlink="http://www.w3.org/1999/xlink" version="1.1" x="0" y="0" viewBox="30.496 20.587 39.00800000000001 58.825" enable-background="new 0 0 100 100" xml:space="preserve" height="160.32031971744846" width="106.31151774820623" class="icon-icon-0" data-fill-palette-color="accent" id="icon-0"><g fill="#ec0020" data-fill-palette-color="accent"><path d="M69.504 49.675L30.496 20.587V79.412H69.504L42.958 49.674zM40.44 34.322L47.621 46.764H33.255zM47.621 66.764H33.255L40.44 54.323z" fill="#ec0020" data-fill-palette-color="accent"></path></g></svg></g></svg></g></svg></g><defs></defs></svg><rect width="292.22103379231567" height="200" fill="none" stroke="none" visibility="hidden"></rect></g></svg></g></svg>